<svg width="48" height="48" viewBox="0 0 48 48" xmlns="http://www.w3.org/2000/svg">
<g clip-path="url(#clip0)">
<path d="M47.9999 23.997C47.9989 23.5102 47.746 23.0585 47.3316 22.8029L42.4534 19.7958L47.3367 16.7563C47.7486 16.5 47.9992 16.0496 47.9999 15.5646C48.0007 15.0795 47.7514 14.6283 47.3403 14.3708L24.7466 0.214593C24.29 -0.071531 23.7099 -0.071531 23.2533 0.214593L0.659624 14.3708C0.248625 14.6283 -0.000654955 15.0795 1.29251e-06 15.5646C0.00075129 16.0497 0.251344 16.5001 0.663186 16.7563L5.51304 19.7749L0.66103 22.8076C0.249469 23.0648 -0.000373706 23.5161 9.50422e-05 24.0014C0.00056379 24.4867 0.25125 24.9375 0.66328 25.194L5.51314 28.2125L0.66103 31.2451C0.250125 31.5019 0.000376291 31.9522 9.50422e-05 32.4368C-0.000186207 32.9214 0.249094 33.372 0.659718 33.6292L23.2534 47.7854C23.4818 47.9285 23.7409 48 24 48C24.2591 48 24.5183 47.9285 24.7466 47.7854L47.3403 33.6292C47.7522 33.3711 48.0017 32.9185 47.9999 32.4324C47.9981 31.9463 47.7454 31.4956 47.3316 31.2405L42.4534 28.2334L47.3367 25.1939C47.7501 24.9367 48.0009 24.4838 47.9999 23.997ZM4.06124 15.5587L24 3.06589L43.9388 15.5587C43.7471 15.6779 24.5714 27.613 24 27.9687L4.06124 15.5587ZM43.9296 32.4473L24 44.9343L4.0573 32.4391L8.17188 29.8674L23.2569 39.2564C23.4844 39.398 23.7422 39.4688 24 39.4688C24.2578 39.4688 24.5156 39.398 24.7431 39.2564L39.7865 29.8933L43.9296 32.4473ZM24 36.4062L4.06358 23.9977L8.17188 21.4299L23.2569 30.819C23.4844 30.9605 23.7422 31.0313 24 31.0313C24.2578 31.0313 24.5156 30.9605 24.7431 30.819L39.7865 21.4558L43.9232 24.0058C43.8089 24.077 24.5278 36.0776 24 36.4062Z"  stroke-width="0.5"/>
</g>
<defs>
<clipPath id="clip0">
<rect width="48" height="48"/>
</clipPath>
</defs>
</svg>
