<svg width="49" height="52" viewBox="0 0 49 52" xmlns="http://www.w3.org/2000/svg">
<path d="M2.50165 38.9492C4.88218 43.0799 9.07448 44.9842 13.8529 45.3842C16.8096 49.4238 20.681 52 24.9278 52C29.1728 52 33.043 49.4256 35.9993 45.3889C40.7811 44.9885 44.9732 43.0801 47.3539 38.9492C49.7153 34.8624 49.2958 30.3161 47.2923 25.9996C49.2946 21.6893 49.7196 17.145 47.3539 13.0508C44.9774 8.92714 40.7863 7.02061 36.0051 6.61913C33.048 2.57755 29.1756 0 24.9278 0C20.6799 0 16.8077 2.57755 13.8507 6.61893C9.06909 7.02041 4.87822 8.92714 2.50165 13.0508C0.140225 17.1376 0.559779 21.6837 2.5632 26.0002C0.560998 30.3105 0.136061 34.855 2.50165 38.9492ZM15.421 9.57023C16.8072 9.54738 18.2446 9.66621 19.6944 9.88843C18.6031 10.3857 17.5416 10.914 16.549 11.4872C15.5131 12.0853 14.4811 12.7701 13.463 13.5025C14.0266 12.0707 14.6842 10.7547 15.421 9.57023ZM36.3925 13.5017C35.3759 12.7707 34.3442 12.0861 33.3067 11.4871C32.316 10.9154 31.2574 10.3884 30.1689 9.89229C31.6154 9.67058 33.051 9.55053 34.4361 9.57247C35.1721 10.7563 35.8291 12.0713 36.3925 13.5017ZM34.4414 42.4193C33.0588 42.4412 31.6261 42.3209 30.1833 42.1011C31.2671 41.6064 32.3214 41.0814 33.3067 40.5128C34.3425 39.9147 35.3746 39.2299 36.3927 38.4975C35.8306 39.925 35.1754 41.2377 34.4414 42.4193ZM41.5164 22.5215C42.4135 23.6455 43.2202 24.8094 43.8848 26.0002C43.2202 27.1907 42.4133 28.3545 41.5164 29.4781C41.6162 28.3375 41.6856 27.1824 41.6856 26C41.6856 24.8176 41.6162 23.6624 41.5164 22.5215ZM31.7832 14.1264C33.8142 15.2988 35.9347 16.8558 37.8987 18.6549C38.3707 20.9637 38.6387 23.4283 38.6387 26C38.6387 28.5712 38.3709 31.0353 37.8991 33.3437C35.9335 35.1446 33.8117 36.7027 31.7832 37.8737C29.7852 39.0263 27.4214 40.0691 24.9273 40.8659C22.4316 40.0686 20.0678 39.0254 18.0723 37.8737C16.0414 36.7013 13.9208 35.1443 11.9568 33.3452C11.4849 31.0364 11.2168 28.5718 11.2168 26.0001C11.2168 23.4289 11.4847 20.9648 11.9564 18.6564C13.9221 16.8555 16.0438 15.2973 18.0723 14.1264C20.0787 12.9682 22.4428 11.9244 24.933 11.1272C27.4074 11.9216 29.7653 12.9617 31.7832 14.1264ZM8.33916 29.4785C7.44206 28.3545 6.63515 27.1904 5.97073 25.9996C6.63555 24.8091 7.44226 23.6455 8.33916 22.5218C8.23933 23.6625 8.16996 24.8176 8.16996 26C8.16996 27.1824 8.23933 28.3376 8.33916 29.4785ZM16.5489 40.5129C17.5348 41.0821 18.5885 41.6067 19.6711 42.1014C18.2286 42.3212 16.7959 42.441 15.4138 42.419C14.68 41.2375 14.025 39.9252 13.4632 38.4983C14.4796 39.2293 15.5114 39.9139 16.5489 40.5129ZM24.9278 48.9531C22.2772 48.9531 19.8085 47.5709 17.7089 45.3916C20.0965 45.2256 22.5408 44.7696 24.9215 44.0714C27.306 44.7723 29.7531 45.2292 32.1426 45.3955C30.0437 47.5723 27.5767 48.9531 24.9278 48.9531ZM44.7176 37.4258C43.2714 39.9324 40.8977 41.3644 38.0743 42.0088C39.1485 39.9064 40.0089 37.5417 40.6235 34.9878C42.4178 33.27 44.0321 31.3768 45.3651 29.3877C46.2163 32.1533 46.1618 34.9227 44.7176 37.4258ZM44.7176 14.5742C46.1624 17.078 46.2171 19.8469 45.3661 22.6115C44.0342 20.6224 42.4199 18.7275 40.6224 17.0074C40.0073 14.4528 39.1462 12.0869 38.071 9.9841C40.8956 10.6304 43.2699 12.0651 44.7176 14.5742ZM24.9278 3.04688C27.5793 3.04688 30.0488 4.42995 32.1489 6.6106C29.759 6.77574 27.3116 7.23095 24.9274 7.9302C22.5429 7.23074 20.0959 6.77574 17.7067 6.6106C19.8068 4.42995 22.2763 3.04688 24.9278 3.04688ZM5.13791 14.5742C6.58325 12.0695 8.95707 10.6336 11.7844 9.98461C10.7085 12.0887 9.84716 14.4558 9.232 17.0123C7.4378 18.7301 5.82346 20.6233 4.49045 22.6124C3.63926 19.8467 3.6938 17.0773 5.13791 14.5742ZM9.23312 34.9925C9.84757 37.5442 10.7076 39.9075 11.781 42.0082C8.95747 41.3637 6.58396 39.9318 5.13791 37.4258C3.69319 34.922 3.63865 32.1531 4.48964 29.3885C5.82153 31.3776 7.43556 33.2722 9.23312 34.9925Z"/>
<path d="M24.9277 21.4297C29.1346 21.4297 32.5449 20.0656 32.5449 18.3828C32.5449 16.7001 29.1346 15.3359 24.9277 15.3359C20.7209 15.3359 17.3105 16.7001 17.3105 18.3828C17.3105 20.0656 20.7209 21.4297 24.9277 21.4297Z" />
<path d="M24.9277 24.4766C20.723 24.4766 17.3105 23.1055 17.3105 21.4297V26C17.3105 27.6758 20.723 29.0469 24.9277 29.0469C29.1324 29.0469 32.5449 27.6758 32.5449 26V21.4297C32.5449 23.1055 29.1324 24.4766 24.9277 24.4766Z" />
<path d="M24.9277 32.0938C20.723 32.0938 17.3105 30.7227 17.3105 29.0469V33.6172C17.3105 35.293 20.723 36.6641 24.9277 36.6641C29.1324 36.6641 32.5449 35.293 32.5449 33.6172V29.0469C32.5449 30.7227 29.1324 32.0938 24.9277 32.0938Z"/>
</svg>
