<svg width="174" height="34" viewBox="0 0 174 34" fill="none" xmlns="http://www.w3.org/2000/svg">
<path d="M41.512 25.288C40.184 25.288 38.896 25.112 37.648 24.76C36.416 24.392 35.424 23.92 34.672 23.344L35.992 20.416C36.712 20.944 37.568 21.368 38.56 21.688C39.552 22.008 40.544 22.168 41.536 22.168C42.64 22.168 43.456 22.008 43.984 21.688C44.512 21.352 44.776 20.912 44.776 20.368C44.776 19.968 44.616 19.64 44.296 19.384C43.992 19.112 43.592 18.896 43.096 18.736C42.616 18.576 41.96 18.4 41.128 18.208C39.848 17.904 38.8 17.6 37.984 17.296C37.168 16.992 36.464 16.504 35.872 15.832C35.296 15.16 35.008 14.264 35.008 13.144C35.008 12.168 35.272 11.288 35.8 10.504C36.328 9.704 37.12 9.072 38.176 8.608C39.248 8.144 40.552 7.912 42.088 7.912C43.16 7.912 44.208 8.04 45.232 8.296C46.256 8.552 47.152 8.92 47.92 9.4L46.72 12.352C45.168 11.472 43.616 11.032 42.064 11.032C40.976 11.032 40.168 11.208 39.64 11.56C39.128 11.912 38.872 12.376 38.872 12.952C38.872 13.528 39.168 13.96 39.76 14.248C40.368 14.52 41.288 14.792 42.52 15.064C43.8 15.368 44.848 15.672 45.664 15.976C46.48 16.28 47.176 16.76 47.752 17.416C48.344 18.072 48.64 18.96 48.64 20.08C48.64 21.04 48.368 21.92 47.824 22.72C47.296 23.504 46.496 24.128 45.424 24.592C44.352 25.056 43.048 25.288 41.512 25.288ZM57.4167 18.4L55.1607 20.752V25H51.2967V8.2H55.1607V16.048L62.6007 8.2H66.9207L59.9607 15.688L67.3287 25H62.7927L57.4167 18.4ZM69.0623 8.2H72.9503V25H69.0623V8.2ZM76.9373 8.2H80.8253V21.832H89.2493V25H76.9373V8.2ZM91.4217 8.2H95.3097V21.832H103.734V25H91.4217V8.2ZM113.665 25.288C111.953 25.288 110.401 24.92 109.009 24.184C107.633 23.432 106.545 22.4 105.745 21.088C104.961 19.76 104.569 18.264 104.569 16.6C104.569 14.936 104.961 13.448 105.745 12.136C106.545 10.808 107.633 9.776 109.009 9.04C110.401 8.288 111.961 7.912 113.689 7.912C115.145 7.912 116.457 8.168 117.625 8.68C118.809 9.192 119.801 9.928 120.601 10.888L118.105 13.192C116.969 11.88 115.561 11.224 113.881 11.224C112.841 11.224 111.913 11.456 111.097 11.92C110.281 12.368 109.641 13 109.177 13.816C108.729 14.632 108.505 15.56 108.505 16.6C108.505 17.64 108.729 18.568 109.177 19.384C109.641 20.2 110.281 20.84 111.097 21.304C111.913 21.752 112.841 21.976 113.881 21.976C115.561 21.976 116.969 21.312 118.105 19.984L120.601 22.288C119.801 23.264 118.809 24.008 117.625 24.52C116.441 25.032 115.121 25.288 113.665 25.288ZM133.962 21.4H126.162L124.674 25H120.69L128.178 8.2H132.018L139.53 25H135.45L133.962 21.4ZM132.738 18.448L130.074 12.016L127.41 18.448H132.738ZM151.977 25L148.737 20.32H148.545H145.161V25H141.273V8.2H148.545C150.033 8.2 151.321 8.448 152.409 8.944C153.513 9.44 154.361 10.144 154.953 11.056C155.545 11.968 155.841 13.048 155.841 14.296C155.841 15.544 155.537 16.624 154.929 17.536C154.337 18.432 153.489 19.12 152.385 19.6L156.153 25H151.977ZM151.905 14.296C151.905 13.352 151.601 12.632 150.993 12.136C150.385 11.624 149.497 11.368 148.329 11.368H145.161V17.224H148.329C149.497 17.224 150.385 16.968 150.993 16.456C151.601 15.944 151.905 15.224 151.905 14.296ZM171.93 21.88V25H158.922V8.2H171.618V11.32H162.786V14.968H170.586V17.992H162.786V21.88H171.93Z" fill="#3D3D3D"/>
<path d="M15.869 30.3679L16.0712 30.3011L16.0748 30.0881L16.4884 5.35087C16.5396 2.28509 13.8164 -0.0202118 11.0443 0.904776L4.34203 3.14114C2.48824 3.75969 1.23534 5.60276 1.20916 7.67905L0.959303 27.4975C0.910966 31.3315 4.30994 34.1871 7.75711 33.0481L15.869 30.3679ZM11.9573 4.05587L11.8624 3.77129L11.9573 4.05587C12.657 3.82239 13.4303 4.39534 13.4153 5.29158L13.0381 27.8505L6.85222 29.8944L6.94633 30.1792L6.85221 29.8944C5.46965 30.3512 4.01147 29.2156 4.03257 27.5422L4.28243 7.72376C4.29095 7.04788 4.69733 6.47833 5.25507 6.29223L5.16011 6.00765L5.25507 6.29223L11.9573 4.05587Z" fill="#FE7244" stroke="#FE7244" stroke-width="0.6"/>
<path d="M21.5533 25.0954L15.5473 27.0294L15.7723 10.4903L21.0764 8.46019C22.0984 8.06905 23.2365 8.8922 23.2268 10.1744L23.1319 22.7922C23.1238 23.8748 22.4691 24.8005 21.5533 25.0954ZM20.0435 5.35204L20.0435 5.35204L12.9203 8.07837L12.7303 8.15108L12.7275 8.35447L12.4186 31.0663L12.4129 31.484L12.8105 31.3559L22.4371 28.2561C24.6704 27.537 26.1866 25.3199 26.2054 22.8189L26.3003 10.2011C26.3265 6.70815 23.1501 4.16305 20.0435 5.35204Z" fill="#FE7244" stroke="#FE7244" stroke-width="0.6"/>
<path d="M4.31472 7.26267L4.01871 7.21387L4.31472 7.26267C4.38511 6.83559 4.66332 6.50359 5.01548 6.38242L11.6232 4.10889C12.4657 3.819 13.3904 4.49755 13.3904 5.55786V6.87458L6.64016 9.46904C6.00929 9.7115 5.3755 9.54156 4.91964 9.11809C4.46206 8.69302 4.19061 8.01551 4.31472 7.26267ZM16.2715 9.27236L16.4639 9.19842V8.99233V5.55786C16.4639 2.33889 13.5809 -0.0300974 10.6843 0.966554L10.7817 1.24989L10.6843 0.966555L4.0766 3.24009C2.61938 3.74148 1.5538 5.07603 1.28825 6.68697C0.962957 8.66029 1.67322 10.4666 2.9081 11.6137C4.14472 12.7625 5.91417 13.2533 7.67698 12.5757L16.2715 9.27236Z" fill="#FE7244" stroke="#FE7244" stroke-width="0.6"/>
</svg>
