<svg width="20" height="19" viewBox="0 0 20 19" xmlns="http://www.w3.org/2000/svg">
<path d="M10.5978 0.369935C10.4855 0.143412 10.2538 0 10 0C9.74624 0 9.51448 0.143412 9.40218 0.369935L6.67301 5.87475L0.570878 6.75686C0.319741 6.79316 0.111089 6.96825 0.0326578 7.2085C-0.045773 7.44875 0.0196214 7.71249 0.201343 7.88882L4.61702 12.1735L3.57433 18.2242C3.53143 18.4731 3.63424 18.7248 3.83955 18.8733C4.04485 19.0217 4.31703 19.0413 4.54164 18.9238L10 16.067L15.4584 18.9238C15.683 19.0413 15.9552 19.0217 16.1605 18.8733C16.3658 18.7248 16.4686 18.4731 16.4257 18.2242L15.383 12.1735L19.7987 7.88882C19.9804 7.71249 20.0458 7.44875 19.9673 7.2085C19.8889 6.96825 19.6803 6.79316 19.4291 6.75686L13.327 5.87475L10.5978 0.369935Z"/>
</svg>
