<svg width="48" height="48" viewBox="0 0 48 48" fill="none" xmlns="http://www.w3.org/2000/svg">
<path d="M26.2233 18.4688C27.483 18.4688 28.3945 19.6619 28.0525 20.8645L23.7942 35.8455C23.5631 36.6577 22.8157 37.2188 21.9642 37.2188C20.7045 37.2188 19.793 36.0256 20.135 34.823L24.3933 19.842C24.6244 19.0298 25.3718 18.4688 26.2233 18.4688ZM11.7554 27.4493L16.3923 23.5616C17.1855 22.8966 17.2896 21.7137 16.6245 20.9202C15.9591 20.127 14.7766 20.0229 13.983 20.688L9.33984 24.5808C9.33691 24.5834 9.33362 24.5859 9.33069 24.5885C8.34595 25.4249 7.78125 26.6455 7.78125 27.9375C7.78125 29.2295 8.34595 30.4501 9.33069 31.2865C9.33362 31.2887 9.33655 31.2916 9.33984 31.2942L13.9827 35.1866C14.3342 35.4814 14.7612 35.625 15.1864 35.625C15.7218 35.625 16.2535 35.3969 16.6241 34.9548C17.2896 34.1613 17.1855 32.9784 16.392 32.3134L11.7554 28.4257C11.5605 28.2583 11.5312 28.0481 11.5312 27.9375C11.5312 27.8269 11.5605 27.6167 11.7554 27.4493ZM36.1428 28.4326L31.5934 32.3254C30.8068 32.9985 30.7145 34.1821 31.3879 34.9691C31.7589 35.4023 32.2844 35.625 32.8136 35.625C33.2446 35.625 33.6782 35.4771 34.0316 35.1746L38.5756 31.2861C39.5603 30.4501 40.125 29.2295 40.125 27.9375C40.125 26.6455 39.5603 25.4249 38.5807 24.5933L34.0316 20.7004C33.2446 20.027 32.061 20.1193 31.3879 20.9059C30.7145 21.6929 30.8068 22.8765 31.5934 23.5496L36.1479 27.4468C36.3453 27.6145 36.375 27.8262 36.375 27.9375C36.375 28.0485 36.3457 28.2601 36.1428 28.4326ZM48 7.5V29.25C48 30.2856 47.1606 31.125 46.125 31.125C45.0894 31.125 44.25 30.2856 44.25 29.25V13.2188H3.75V38.625C3.75 40.6926 5.43237 42.375 7.5 42.375H40.5C42.5676 42.375 44.25 40.6926 44.25 38.625C44.25 37.5894 45.0894 36.75 46.125 36.75C47.1606 36.75 48 37.5894 48 38.625C48 42.7606 44.6356 46.125 40.5 46.125H7.5C3.36438 46.125 0 42.7606 0 38.625V7.5C0 4.39819 2.52319 1.875 5.625 1.875H42.375C45.4768 1.875 48 4.39819 48 7.5ZM32.9062 7.5C32.9062 8.53381 33.7474 9.375 34.7812 9.375C35.8151 9.375 36.6562 8.53381 36.6562 7.5C36.6562 6.46619 35.8151 5.625 34.7812 5.625C33.7474 5.625 32.9062 6.46619 32.9062 7.5ZM42.2812 5.625C41.2474 5.625 40.4062 6.46619 40.4062 7.5C40.4062 8.53381 41.2474 9.375 42.2812 9.375C43.3151 9.375 44.1562 8.53381 44.1562 7.5C44.1562 6.46619 43.3151 5.625 42.2812 5.625ZM3.75 9.46875H29.5126C29.2826 8.85571 29.1562 8.1925 29.1562 7.5C29.1562 6.84265 29.2705 6.21204 29.4789 5.625H5.625C4.59119 5.625 3.75 6.46619 3.75 7.5V9.46875Z" fill="white"/>
</svg>
