<svg width="31" height="26" viewBox="0 0 31 26" fill="none" xmlns="http://www.w3.org/2000/svg">
<path d="M17.4898 18.6432C16.9381 18.9816 16.2315 19.168 15.5002 19.168C14.7688 19.168 14.0622 18.9817 13.5105 18.6432L4.50257 13.1186C4.50257 13.1186 3.68951 12.6202 3.68951 13.7492C3.68951 15.0312 3.68951 18.8774 3.68951 18.8774C3.68951 18.9287 3.68951 19.1861 3.68951 19.2659C3.68951 22.172 8.97724 25.305 15.4999 25.305C22.0226 25.305 27.3103 22.1721 27.3103 19.2659C27.3103 19.1861 27.3103 18.9287 27.3103 18.8774C27.3103 18.8774 27.3103 14.798 27.3103 13.4382C27.3103 12.5319 26.7323 12.9748 26.7323 12.9748L17.4898 18.6432Z" fill="url(#paint0_linear)"/>
<path d="M30.4809 8.72411C31.173 8.29963 31.173 7.60499 30.4809 7.18044L16.7584 0.318357C16.0663 -0.106119 14.9336 -0.106119 14.2415 0.318357L0.519114 7.18044C-0.173038 7.60491 -0.173038 8.29955 0.519114 8.72411L14.2415 17.1402C14.9336 17.5647 16.0663 17.5647 16.7584 17.1402" fill="url(#paint1_linear)"/>
<path d="M29.9136 21.1988C29.9136 18.8751 29.9136 11.9039 29.9136 11.9039C29.9136 11.9039 29.9201 11.4637 29.6588 11.609C29.4493 11.7257 28.9356 12.012 28.7546 12.1694C28.5457 12.351 28.5928 12.7586 28.5928 12.7586C28.5928 12.7586 28.5928 19.0887 28.5928 21.1988C28.5928 21.3186 28.4898 21.3758 28.4407 21.4047C27.9664 21.6835 27.6474 22.1983 27.6474 22.7884C27.6474 23.6753 28.3663 24.3943 29.2532 24.3943C30.1401 24.3943 30.859 23.6753 30.859 22.7884C30.859 22.196 30.5377 21.6797 30.0603 21.4015C30.0128 21.3738 29.9136 21.3185 29.9136 21.1988Z" fill="url(#paint2_linear)"/>
<defs>
<linearGradient id="paint0_linear" x1="3.68951" y1="18.6712" x2="26.743" y2="18.8665" gradientUnits="userSpaceOnUse">
<stop stop-color="#F99462"/>
<stop offset="1" stop-color="#F99462" stop-opacity="0.65"/>
</linearGradient>
<linearGradient id="paint1_linear" x1="-1.66201e-07" y1="8.14732" x2="30.2557" y2="8.38705" gradientUnits="userSpaceOnUse">
<stop stop-color="#F99462"/>
<stop offset="1" stop-color="#F99462" stop-opacity="0.65"/>
</linearGradient>
<linearGradient id="paint2_linear" x1="27.6474" y1="17.5598" x2="30.7821" y2="17.5633" gradientUnits="userSpaceOnUse">
<stop stop-color="#F99462"/>
<stop offset="1" stop-color="#F99462" stop-opacity="0.65"/>
</linearGradient>
</defs>
</svg>
