<svg width="30" height="30" viewBox="0 0 30 30" fill="none" xmlns="http://www.w3.org/2000/svg">
<path d="M7.5 7.5C2.5875 7.5 0 11.2875 0 15C0 18.7125 2.5875 22.5 7.5 22.5C10.4625 22.5 12.825 20.4 15 17.925C17.175 20.4 19.4625 22.5 22.5 22.5C27.4125 22.5 30 18.7125 30 15C30 11.2875 27.4125 7.5 22.5 7.5C19.4625 7.5 17.175 9.6 15 12.075C12.825 9.6 10.4625 7.5 7.5 7.5ZM7.5 11.25C9.075 11.25 10.8 13.0125 12.525 15C10.8 16.9875 9.075 18.75 7.5 18.75C4.725 18.75 3.75 16.725 3.75 15C3.75 13.275 4.725 11.25 7.5 11.25ZM22.5 11.25C25.275 11.25 26.25 13.275 26.25 15C26.25 16.725 25.275 18.75 22.5 18.75C20.8875 18.75 19.1625 16.9875 17.475 15C19.2 13.0125 20.8875 11.25 22.5 11.25Z" fill="url(#paint0_linear)"/>
<defs>
<linearGradient id="paint0_linear" x1="-1.6084e-07" y1="14.5" x2="29.2792" y2="14.7613" gradientUnits="userSpaceOnUse">
<stop stop-color="#47C2FF"/>
<stop offset="1" stop-color="#63CBFE" stop-opacity="0.65"/>
</linearGradient>
</defs>
</svg>
