<?xml version="1.0" encoding="utf-8"?><svg viewBox="0 0 174 52" xmlns="http://www.w3.org/2000/svg" xmlns:xlink="http://www.w3.org/1999/xlink"><style>:root>svg{display:none}:root>svg:target{display:block}</style><svg viewBox="0 0 48 48" id="1" xmlns="http://www.w3.org/2000/svg"><g clip-path="url(#aclip0)"><path d="M48 23.997a1.407 1.407 0 00-.668-1.194l-4.879-3.007 4.884-3.04a1.406 1.406 0 00.003-2.385L24.747.215a1.406 1.406 0 00-1.494 0L.66 14.37a1.406 1.406 0 00.003 2.385l4.85 3.019-4.852 3.033a1.406 1.406 0 00.002 2.386l4.85 3.018-4.852 3.033A1.406 1.406 0 00.66 33.63l22.593 14.156a1.405 1.405 0 001.494 0L47.34 33.63a1.406 1.406 0 00-.008-2.388l-4.879-3.008 4.884-3.04c.413-.256.664-.71.663-1.196zM4.06 15.559L24 3.066l19.939 12.493L24 27.969 4.061 15.559zM43.93 32.447L24 44.934 4.057 32.44l4.115-2.572 15.085 9.39a1.405 1.405 0 001.486 0l15.043-9.364 4.144 2.554zM24 36.407L4.064 23.996l4.108-2.567 15.085 9.389a1.406 1.406 0 001.486 0l15.043-9.363 4.137 2.55L24 36.406z"/></g><defs><clipPath id="aclip0"><path d="M0 0h48v48H0z"/></clipPath></defs></svg><svg viewBox="0 0 48 48" id="2" xmlns="http://www.w3.org/2000/svg"><path d="M26.223 18.469c1.26 0 2.172 1.193 1.83 2.395l-4.259 14.982a1.899 1.899 0 01-1.83 1.373c-1.26 0-2.171-1.193-1.829-2.396l4.258-14.981a1.899 1.899 0 011.83-1.373zm-14.468 8.98l4.637-3.887a1.875 1.875 0 00-2.409-2.874L9.34 24.581l-.01.008a4.387 4.387 0 00-1.549 3.349c0 1.292.565 2.512 1.55 3.349l.009.007 4.643 3.893a1.87 1.87 0 002.641-.232 1.875 1.875 0 00-.232-2.642l-4.637-3.887a.636.636 0 01-.224-.488c0-.111.03-.321.224-.489zm24.388.984l-4.55 3.892a1.875 1.875 0 002.439 2.85l4.544-3.889a4.385 4.385 0 001.549-3.349 4.382 4.382 0 00-1.544-3.344L34.03 20.7a1.875 1.875 0 00-2.438 2.85l4.555 3.897a.64.64 0 01-.005.986zM48 7.5v21.75a1.875 1.875 0 11-3.75 0V13.219H3.75v25.406a3.754 3.754 0 003.75 3.75h33a3.754 3.754 0 003.75-3.75 1.875 1.875 0 113.75 0c0 4.136-3.364 7.5-7.5 7.5h-33c-4.136 0-7.5-3.364-7.5-7.5V7.5a5.631 5.631 0 015.625-5.625h36.75A5.631 5.631 0 0148 7.5zm-15.094 0c0 1.034.841 1.875 1.875 1.875A1.877 1.877 0 0036.656 7.5a1.877 1.877 0 00-1.875-1.875A1.877 1.877 0 0032.906 7.5zm9.375-1.875A1.877 1.877 0 0040.406 7.5c0 1.034.841 1.875 1.875 1.875A1.877 1.877 0 0044.156 7.5a1.877 1.877 0 00-1.875-1.875zM3.75 9.469h25.763a5.593 5.593 0 01-.034-3.844H5.625A1.877 1.877 0 003.75 7.5v1.969z"/></svg><svg viewBox="0 0 48 48" id="3" xmlns="http://www.w3.org/2000/svg"><path d="M46.594 0h-5.625c-.777 0-1.407.63-1.407 1.406v1.407H27.977A4.226 4.226 0 0024 0a4.226 4.226 0 00-3.977 2.813H8.438V1.405C8.438.63 7.808 0 7.03 0H1.406C.63 0 0 .63 0 1.406v5.625c0 .777.63 1.407 1.406 1.407h5.625c.777 0 1.407-.63 1.407-1.407V5.606h5.847C9.212 8.82 6.128 14.248 5.757 20.01A4.225 4.225 0 002.907 24a4.224 4.224 0 004.218 4.219A4.224 4.224 0 0011.344 24a4.226 4.226 0 00-2.769-3.962c.5-6.623 5.269-12.327 11.646-13.946A4.223 4.223 0 0024 8.438a4.223 4.223 0 003.779-2.346c6.377 1.619 11.146 7.323 11.646 13.946A4.226 4.226 0 0036.656 24a4.224 4.224 0 004.219 4.219A4.224 4.224 0 0045.094 24a4.225 4.225 0 00-2.851-3.99 18.442 18.442 0 00-8.528-14.385h5.847v1.406c0 .777.63 1.407 1.407 1.407h5.625c.776 0 1.406-.63 1.406-1.407V1.406C48 .63 47.37 0 46.594 0zM5.625 5.625H2.812V2.812h2.813v2.813zm1.5 19.781c-.775 0-1.406-.63-1.406-1.406 0-.775.63-1.406 1.406-1.406.775 0 1.406.63 1.406 1.406 0 .775-.63 1.406-1.406 1.406zM24 5.625c-.775 0-1.406-.63-1.406-1.406 0-.776.63-1.407 1.406-1.407a1.408 1.408 0 010 2.813zm16.875 16.969c.775 0 1.406.63 1.406 1.406 0 .775-.63 1.406-1.406 1.406-.775 0-1.406-.63-1.406-1.406 0-.775.63-1.406 1.406-1.406zm4.313-16.969h-2.813V2.812h2.813v2.813z"/><path d="M36.42 28.845L25.17 11.97l-.001-.002-.013-.017a1.406 1.406 0 00-2.312 0l-.013.017v.002L11.58 28.845c-.373.558-.3 1.3.175 1.774a17.817 17.817 0 015.078 10.397 7.128 7.128 0 00-2.677 5.577c0 .777.629 1.407 1.406 1.407h16.875c.776 0 1.406-.63 1.406-1.406a7.129 7.129 0 00-2.678-5.578 17.815 17.815 0 015.078-10.397 1.406 1.406 0 00.176-1.774zM24 28.219c.776 0 1.406.63 1.406 1.406 0 .775-.63 1.406-1.406 1.406-.775 0-1.406-.63-1.406-1.406 0-.775.63-1.406 1.406-1.406zM17.21 45.187c.585-1.671 2.17-2.906 3.979-2.906h5.625c1.807 0 3.393 1.235 3.979 2.907H17.209zm11.314-5.504a6.909 6.909 0 00-1.71-.214h-5.625c-.584 0-1.158.073-1.71.214a20.636 20.636 0 00-4.937-10.21l8.053-12.078v8.253a4.225 4.225 0 00-2.813 3.977 4.224 4.224 0 004.22 4.219 4.224 4.224 0 004.218-4.219 4.225 4.225 0 00-2.813-3.977v-8.253l8.053 12.079a20.632 20.632 0 00-4.936 10.209z"/><defs><linearGradient id="cpaint0_linear" x1="0" y1="13.169" x2="46.848" y2="13.524" gradientUnits="userSpaceOnUse"><stop stop-color="#F99462"/><stop offset="1" stop-color="#F99462" stop-opacity=".65"/></linearGradient><linearGradient id="cpaint1_linear" x1="11.344" y1="28.451" x2="36.05" y2="28.527" gradientUnits="userSpaceOnUse"><stop stop-color="#F99462"/><stop offset="1" stop-color="#F99462" stop-opacity=".65"/></linearGradient></defs></svg><svg viewBox="0 0 49 52" id="4" xmlns="http://www.w3.org/2000/svg"><path d="M2.502 38.95c2.38 4.13 6.572 6.034 11.35 6.434C16.81 49.424 20.682 52 24.929 52c4.245 0 8.115-2.574 11.071-6.611 4.782-.4 8.974-2.309 11.355-6.44 2.361-4.087 1.942-8.633-.062-12.95 2.003-4.31 2.428-8.854.062-12.948-2.377-4.124-6.568-6.03-11.349-6.432C33.048 2.578 29.175 0 24.928 0c-4.248 0-8.12 2.578-11.077 6.619C9.069 7.02 4.878 8.927 2.5 13.05.142 17.138.56 21.684 2.564 26 .561 30.31.136 34.854 2.502 38.948zM15.42 9.57c1.386-.023 2.824.096 4.273.318a36.933 36.933 0 00-3.145 1.6 37.08 37.08 0 00-3.086 2.014 24.281 24.281 0 011.958-3.932zm20.971 3.932a37.138 37.138 0 00-3.085-2.015 36.989 36.989 0 00-3.138-1.595c1.446-.221 2.882-.341 4.267-.32a24.324 24.324 0 011.956 3.93zm-1.95 28.917c-1.383.022-2.816-.098-4.259-.318a37.048 37.048 0 003.124-1.588 37.097 37.097 0 003.086-2.015 24.314 24.314 0 01-1.952 3.921zm7.074-19.897c.898 1.123 1.704 2.287 2.369 3.478-.665 1.19-1.472 2.355-2.369 3.478.1-1.14.17-2.296.17-3.478 0-1.182-.07-2.338-.17-3.479zm-9.733-8.396c2.031 1.173 4.152 2.73 6.116 4.529.472 2.309.74 4.773.74 7.345 0 2.571-.268 5.035-.74 7.344-1.965 1.8-4.087 3.359-6.116 4.53-1.998 1.152-4.362 2.195-6.856 2.992-2.495-.797-4.86-1.84-6.855-2.992-2.03-1.173-4.151-2.73-6.115-4.529a36.71 36.71 0 01-.74-7.345c0-2.571.268-5.035.74-7.344 1.965-1.8 4.087-3.359 6.115-4.53 2.007-1.158 4.37-2.202 6.861-2.999 2.474.795 4.832 1.835 6.85 3zM8.34 29.48c-.897-1.124-1.704-2.289-2.368-3.48.665-1.19 1.471-2.354 2.368-3.477-.1 1.14-.169 2.296-.169 3.478 0 1.182.07 2.338.17 3.479zm8.21 11.034c.986.57 2.04 1.094 3.122 1.588-1.442.22-2.875.34-4.257.318a24.312 24.312 0 01-1.95-3.92 37.103 37.103 0 003.085 2.014zm8.379 8.44c-2.65 0-5.12-1.382-7.22-3.561 2.389-.166 4.833-.622 7.214-1.32 2.384.7 4.831 1.157 7.22 1.323-2.098 2.177-4.565 3.558-7.214 3.558zm19.79-11.527c-1.447 2.506-3.82 3.938-6.644 4.583 1.075-2.103 1.935-4.467 2.55-7.021 1.794-1.718 3.408-3.611 4.741-5.6.851 2.765.797 5.535-.647 8.038zm0-22.852c1.444 2.504 1.5 5.273.648 8.037-1.332-1.989-2.946-3.884-4.744-5.604-.615-2.554-1.476-4.92-2.551-7.023 2.825.646 5.199 2.081 6.647 4.59zM24.928 3.047c2.651 0 5.12 1.383 7.22 3.564-2.389.165-4.836.62-7.22 1.32-2.385-.7-4.832-1.155-7.221-1.32 2.1-2.181 4.57-3.564 7.22-3.564zM5.138 14.574c1.445-2.505 3.82-3.94 6.646-4.59-1.075 2.105-1.937 4.472-2.552 7.028-1.794 1.718-3.409 3.611-4.742 5.6-.85-2.765-.796-5.535.648-8.038zm4.095 20.419c.615 2.551 1.475 4.914 2.548 7.015-2.824-.644-5.197-2.076-6.643-4.582-1.445-2.504-1.5-5.273-.648-8.038 1.332 1.99 2.946 3.884 4.743 5.604z"/><path d="M24.928 21.43c4.207 0 7.617-1.364 7.617-3.047s-3.41-3.047-7.617-3.047-7.617 1.364-7.617 3.047 3.41 3.047 7.617 3.047zM24.928 24.477c-4.205 0-7.617-1.372-7.617-3.047V26c0 1.676 3.412 3.047 7.617 3.047 4.204 0 7.617-1.371 7.617-3.047v-4.57c0 1.675-3.413 3.047-7.617 3.047zM24.928 32.094c-4.205 0-7.617-1.371-7.617-3.047v4.57c0 1.676 3.412 3.047 7.617 3.047 4.204 0 7.617-1.371 7.617-3.047v-4.57c0 1.676-3.413 3.047-7.617 3.047z"/></svg><svg viewBox="0 0 48 48" id="5" xmlns="http://www.w3.org/2000/svg"><path d="M44.476 11.479l2.328-2.328a1.407 1.407 0 00-.876-2.396l-4.319-.364-.364-4.319a1.406 1.406 0 00-2.395-.876l-2.328 2.328A23.872 23.872 0 0024 0 23.843 23.843 0 007.03 7.03 23.843 23.843 0 000 24c0 6.41 2.496 12.438 7.03 16.97A23.844 23.844 0 0024 48c6.41 0 12.438-2.496 16.97-7.03A23.844 23.844 0 0048 24c0-4.452-1.215-8.757-3.524-12.521zm-5.57-3.668c.058.683.6 1.225 1.284 1.283l2.484.21-3.363 3.362-3.668-.309-.31-3.668 3.364-3.363.21 2.485zM28.781 24A4.787 4.787 0 0124 28.781 4.787 4.787 0 0119.219 24 4.787 4.787 0 0124 19.219c.808 0 1.568.201 2.236.556l-3.23 3.23a1.406 1.406 0 101.988 1.99l3.23-3.23c.355.667.557 1.427.557 2.235zm-.501-6.269A7.552 7.552 0 0024 16.406c-4.187 0-7.594 3.407-7.594 7.594s3.407 7.594 7.594 7.594 7.594-3.407 7.594-7.594c0-1.586-.49-3.06-1.325-4.28l4.015-4.015A13.155 13.155 0 0137.219 24c0 7.289-5.93 13.219-13.219 13.219S10.781 31.289 10.781 24 16.711 10.781 24 10.781c3.139 0 6.025 1.1 8.295 2.935l-4.015 4.015zm10.702 21.25A21.048 21.048 0 0124 45.188c-5.66 0-10.98-2.203-14.982-6.205A21.048 21.048 0 012.812 24c0-5.66 2.204-10.98 6.206-14.982A21.048 21.048 0 0124 2.812c3.702 0 7.289.952 10.47 2.764l-1.587 1.586a1.406 1.406 0 00-.407 1.113l.19 2.243A15.934 15.934 0 0024 7.968C15.16 7.969 7.969 15.16 7.969 24S15.16 40.031 24 40.031 40.031 32.84 40.031 24c0-3.19-.937-6.165-2.55-8.665l2.244.189c.04.003.08.005.119.005l.02-.001c.019 0 .037-.002.056-.003l.09-.007.057-.009a1.557 1.557 0 00.228-.056 1.293 1.293 0 00.136-.055c.017-.008.035-.015.052-.024.027-.014.053-.03.08-.045l.046-.028c.028-.018.055-.038.081-.058l.038-.028c.038-.03.075-.063.11-.098l1.586-1.586A21.08 21.08 0 0145.188 24c0 5.66-2.204 10.98-6.206 14.982z"/></svg><svg fill="none" viewBox="0 0 174 34" id="logo" xmlns="http://www.w3.org/2000/svg"><path d="M41.511 26.204c-1.328 0-2.616-.175-3.864-.527-1.231-.369-2.224-.84-2.975-1.416l1.32-2.928c.72.527 1.576.952 2.568 1.272.991.32 1.983.48 2.975.48 1.105 0 1.92-.16 2.449-.48.527-.337.791-.777.791-1.32 0-.4-.16-.729-.48-.985-.303-.271-.703-.488-1.2-.648-.48-.16-1.136-.335-1.968-.527-1.28-.305-2.328-.608-3.144-.913a5.199 5.199 0 01-2.111-1.463c-.577-.672-.864-1.568-.864-2.688 0-.976.264-1.857.791-2.64.529-.8 1.32-1.432 2.377-1.896 1.072-.465 2.375-.697 3.911-.697 1.072 0 2.12.129 3.144.385s1.92.623 2.688 1.104l-1.2 2.951c-1.552-.88-3.104-1.32-4.656-1.32-1.088 0-1.896.176-2.424.528-.512.352-.768.816-.768 1.392s.296 1.008.889 1.296c.608.273 1.528.545 2.76.816 1.28.305 2.327.608 3.143.912a5.113 5.113 0 012.089 1.44c.591.656.887 1.544.887 2.665 0 .96-.272 1.84-.816 2.64-.528.784-1.328 1.407-2.4 1.872-1.072.463-2.376.695-3.912.695zm15.905-6.887l-2.256 2.352v4.247h-3.864v-16.8h3.864v7.849l7.44-7.848h4.32l-6.96 7.488 7.368 9.311h-4.536l-5.376-6.6zm11.646-10.2h3.888v16.8h-3.888v-16.8zm7.875 0h3.888v13.631h8.424v3.168H76.937v-16.8zm14.484 0h3.888v13.631h8.424v3.168H91.421v-16.8zm22.243 17.087c-1.712 0-3.264-.367-4.656-1.104a8.555 8.555 0 01-3.264-3.096c-.784-1.328-1.176-2.824-1.176-4.488 0-1.663.392-3.151 1.176-4.463a8.323 8.323 0 013.264-3.097c1.392-.752 2.952-1.127 4.68-1.127 1.456 0 2.768.255 3.936.768a7.886 7.886 0 012.976 2.208l-2.496 2.303c-1.136-1.312-2.544-1.968-4.224-1.968-1.04 0-1.968.232-2.784.696a4.862 4.862 0 00-1.92 1.896c-.448.817-.672 1.745-.672 2.785s.224 1.968.672 2.784a5.03 5.03 0 001.92 1.92c.816.448 1.744.671 2.784.671 1.68 0 3.088-.663 4.224-1.991l2.496 2.303a7.78 7.78 0 01-2.976 2.232c-1.184.512-2.504.768-3.96.768zm20.298-3.887h-7.8l-1.488 3.6h-3.984l7.488-16.8h3.84l7.512 16.8h-4.08l-1.488-3.6zm-1.224-2.953l-2.664-6.432-2.664 6.432h5.328zm19.239 6.552l-3.24-4.68h-3.576v4.68h-3.888v-16.8h7.272c1.488 0 2.776.248 3.864.745 1.104.495 1.952 1.2 2.544 2.111.592.912.888 1.992.888 3.24 0 1.248-.304 2.329-.912 3.24-.592.896-1.44 1.584-2.544 2.064l3.768 5.4h-4.176zm-.072-10.704c0-.944-.304-1.663-.912-2.16-.608-.511-1.496-.768-2.664-.768h-3.168v5.856h3.168c1.168 0 2.056-.256 2.664-.768.608-.512.912-1.232.912-2.16zm20.024 7.585v3.12h-13.008v-16.8h12.696v3.12h-8.832v3.647h7.8v3.024h-7.8v3.889h9.144z" fill="#3D3D3D"/><path d="M15.867 29.945l.204-.066.003-.214.414-24.377c.051-3.03-2.677-5.296-5.443-4.386L4.343 3.105c-1.853.61-3.108 2.426-3.134 4.477l-.25 19.53c-.049 3.787 3.355 6.595 6.796 5.475l8.112-2.642zM5.253 6.22l6.703-2.204-.094-.285.094.285c.706-.232 1.474.339 1.459 1.213l-.377 22.227-6.185 2.014c-1.389.452-2.842-.673-2.82-2.314l.249-19.53c.008-.662.412-1.222.971-1.406l-.093-.285.093.285z" fill="#FE7244" stroke="#FE7244" stroke-width=".6"/><path d="M21.554 24.74l-6.007 1.906.225-16.29 5.303-2c1.028-.388 2.16.43 2.151 1.685l-.095 12.434c-.008 1.062-.66 1.974-1.577 2.265zM12.921 7.97l-.191.073-.003.204-.309 22.382-.006.416.397-.126 9.626-3.055c2.232-.708 3.751-2.893 3.77-5.363l.095-12.434c.026-3.45-3.155-5.952-6.256-4.783l-7.123 2.687z" fill="#FE7244" stroke="#FE7244" stroke-width=".6"/><path d="M16.27 9.156l.193-.073V5.491c0-3.18-2.888-5.509-5.778-4.529l-6.608 2.24c-1.456.494-2.523 1.81-2.79 3.4-.647 3.876 2.844 7.152 6.388 5.81l8.595-3.256zM5.014 6.308l6.607-2.24c.85-.288 1.769.387 1.769 1.423v1.294L6.64 9.34c-1.243.47-2.577-.67-2.327-2.168.07-.418.346-.745.7-.864z" fill="#FE7244" stroke="#FE7244" stroke-width=".6"/></svg></svg>