<?xml version="1.0" encoding="utf-8"?><svg viewBox="0 0 174 52" xmlns="http://www.w3.org/2000/svg" xmlns:xlink="http://www.w3.org/1999/xlink"><style>:root>svg{display:none}:root>svg:target{display:block}</style><svg viewBox="0 0 48 48" id="1" xmlns="http://www.w3.org/2000/svg"><g clip-path="url(#aclip0)"><path d="M48 23.997a1.407 1.407 0 00-.668-1.194l-4.879-3.007 4.884-3.04a1.406 1.406 0 00.003-2.385L24.747.215a1.406 1.406 0 00-1.494 0L.66 14.37a1.406 1.406 0 00.003 2.385l4.85 3.019-4.852 3.033a1.406 1.406 0 00.002 2.386l4.85 3.018-4.852 3.033A1.406 1.406 0 00.66 33.63l22.593 14.156a1.405 1.405 0 001.494 0L47.34 33.63a1.406 1.406 0 00-.008-2.388l-4.879-3.008 4.884-3.04c.413-.256.664-.71.663-1.196zM4.06 15.559L24 3.066l19.939 12.493L24 27.969 4.061 15.559zM43.93 32.447L24 44.934 4.057 32.44l4.115-2.572 15.085 9.39a1.405 1.405 0 001.486 0l15.043-9.364 4.144 2.554zM24 36.407L4.064 23.996l4.108-2.567 15.085 9.389a1.406 1.406 0 001.486 0l15.043-9.363 4.137 2.55L24 36.406z"/></g><defs><clipPath id="aclip0"><path d="M0 0h48v48H0z"/></clipPath></defs></svg><svg viewBox="0 0 48 48" id="2" xmlns="http://www.w3.org/2000/svg"><path d="M26.223 18.469c1.26 0 2.172 1.193 1.83 2.395l-4.259 14.982a1.899 1.899 0 01-1.83 1.373c-1.26 0-2.171-1.193-1.829-2.396l4.258-14.981a1.899 1.899 0 011.83-1.373zm-14.468 8.98l4.637-3.887a1.875 1.875 0 00-2.409-2.874L9.34 24.581l-.01.008a4.387 4.387 0 00-1.549 3.349c0 1.292.565 2.512 1.55 3.349l.009.007 4.643 3.893a1.87 1.87 0 002.641-.232 1.875 1.875 0 00-.232-2.642l-4.637-3.887a.636.636 0 01-.224-.488c0-.111.03-.321.224-.489zm24.388.984l-4.55 3.892a1.875 1.875 0 002.439 2.85l4.544-3.889a4.385 4.385 0 001.549-3.349 4.382 4.382 0 00-1.544-3.344L34.03 20.7a1.875 1.875 0 00-2.438 2.85l4.555 3.897a.64.64 0 01-.005.986zM48 7.5v21.75a1.875 1.875 0 11-3.75 0V13.219H3.75v25.406a3.754 3.754 0 003.75 3.75h33a3.754 3.754 0 003.75-3.75 1.875 1.875 0 113.75 0c0 4.136-3.364 7.5-7.5 7.5h-33c-4.136 0-7.5-3.364-7.5-7.5V7.5a5.631 5.631 0 015.625-5.625h36.75A5.631 5.631 0 0148 7.5zm-15.094 0c0 1.034.841 1.875 1.875 1.875A1.877 1.877 0 0036.656 7.5a1.877 1.877 0 00-1.875-1.875A1.877 1.877 0 0032.906 7.5zm9.375-1.875A1.877 1.877 0 0040.406 7.5c0 1.034.841 1.875 1.875 1.875A1.877 1.877 0 0044.156 7.5a1.877 1.877 0 00-1.875-1.875zM3.75 9.469h25.763a5.593 5.593 0 01-.034-3.844H5.625A1.877 1.877 0 003.75 7.5v1.969z"/></svg><svg viewBox="0 0 48 48" id="3" xmlns="http://www.w3.org/2000/svg"><path d="M46.594 0h-5.625c-.777 0-1.407.63-1.407 1.406v1.407H27.977A4.226 4.226 0 0024 0a4.226 4.226 0 00-3.977 2.813H8.438V1.405C8.438.63 7.808 0 7.03 0H1.406C.63 0 0 .63 0 1.406v5.625c0 .777.63 1.407 1.406 1.407h5.625c.777 0 1.407-.63 1.407-1.407V5.606h5.847C9.212 8.82 6.128 14.248 5.757 20.01A4.225 4.225 0 002.907 24a4.224 4.224 0 004.218 4.219A4.224 4.224 0 0011.344 24a4.226 4.226 0 00-2.769-3.962c.5-6.623 5.269-12.327 11.646-13.946A4.223 4.223 0 0024 8.438a4.223 4.223 0 003.779-2.346c6.377 1.619 11.146 7.323 11.646 13.946A4.226 4.226 0 0036.656 24a4.224 4.224 0 004.219 4.219A4.224 4.224 0 0045.094 24a4.225 4.225 0 00-2.851-3.99 18.442 18.442 0 00-8.528-14.385h5.847v1.406c0 .777.63 1.407 1.407 1.407h5.625c.776 0 1.406-.63 1.406-1.407V1.406C48 .63 47.37 0 46.594 0zM5.625 5.625H2.812V2.812h2.813v2.813zm1.5 19.781c-.775 0-1.406-.63-1.406-1.406 0-.775.63-1.406 1.406-1.406.775 0 1.406.63 1.406 1.406 0 .775-.63 1.406-1.406 1.406zM24 5.625c-.775 0-1.406-.63-1.406-1.406 0-.776.63-1.407 1.406-1.407a1.408 1.408 0 010 2.813zm16.875 16.969c.775 0 1.406.63 1.406 1.406 0 .775-.63 1.406-1.406 1.406-.775 0-1.406-.63-1.406-1.406 0-.775.63-1.406 1.406-1.406zm4.313-16.969h-2.813V2.812h2.813v2.813z"/><path d="M36.42 28.845L25.17 11.97l-.001-.002-.013-.017a1.406 1.406 0 00-2.312 0l-.013.017v.002L11.58 28.845c-.373.558-.3 1.3.175 1.774a17.817 17.817 0 015.078 10.397 7.128 7.128 0 00-2.677 5.577c0 .777.629 1.407 1.406 1.407h16.875c.776 0 1.406-.63 1.406-1.406a7.129 7.129 0 00-2.678-5.578 17.815 17.815 0 015.078-10.397 1.406 1.406 0 00.176-1.774zM24 28.219c.776 0 1.406.63 1.406 1.406 0 .775-.63 1.406-1.406 1.406-.775 0-1.406-.63-1.406-1.406 0-.775.63-1.406 1.406-1.406zM17.21 45.187c.585-1.671 2.17-2.906 3.979-2.906h5.625c1.807 0 3.393 1.235 3.979 2.907H17.209zm11.314-5.504a6.909 6.909 0 00-1.71-.214h-5.625c-.584 0-1.158.073-1.71.214a20.636 20.636 0 00-4.937-10.21l8.053-12.078v8.253a4.225 4.225 0 00-2.813 3.977 4.224 4.224 0 004.22 4.219 4.224 4.224 0 004.218-4.219 4.225 4.225 0 00-2.813-3.977v-8.253l8.053 12.079a20.632 20.632 0 00-4.936 10.209z"/><defs><linearGradient id="cpaint0_linear" x1="0" y1="13.169" x2="46.848" y2="13.524" gradientUnits="userSpaceOnUse"><stop stop-color="#F99462"/><stop offset="1" stop-color="#F99462" stop-opacity=".65"/></linearGradient><linearGradient id="cpaint1_linear" x1="11.344" y1="28.451" x2="36.05" y2="28.527" gradientUnits="userSpaceOnUse"><stop stop-color="#F99462"/><stop offset="1" stop-color="#F99462" stop-opacity=".65"/></linearGradient></defs></svg><svg viewBox="0 0 49 52" id="4" xmlns="http://www.w3.org/2000/svg"><path d="M2.502 38.95c2.38 4.13 6.572 6.034 11.35 6.434C16.81 49.424 20.682 52 24.929 52c4.245 0 8.115-2.574 11.071-6.611 4.782-.4 8.974-2.309 11.355-6.44 2.361-4.087 1.942-8.633-.062-12.95 2.003-4.31 2.428-8.854.062-12.948-2.377-4.124-6.568-6.03-11.349-6.432C33.048 2.578 29.175 0 24.928 0c-4.248 0-8.12 2.578-11.077 6.619C9.069 7.02 4.878 8.927 2.5 13.05.142 17.138.56 21.684 2.564 26 .561 30.31.136 34.854 2.502 38.948zM15.42 9.57c1.386-.023 2.824.096 4.273.318a36.933 36.933 0 00-3.145 1.6 37.08 37.08 0 00-3.086 2.014 24.281 24.281 0 011.958-3.932zm20.971 3.932a37.138 37.138 0 00-3.085-2.015 36.989 36.989 0 00-3.138-1.595c1.446-.221 2.882-.341 4.267-.32a24.324 24.324 0 011.956 3.93zm-1.95 28.917c-1.383.022-2.816-.098-4.259-.318a37.048 37.048 0 003.124-1.588 37.097 37.097 0 003.086-2.015 24.314 24.314 0 01-1.952 3.921zm7.074-19.897c.898 1.123 1.704 2.287 2.369 3.478-.665 1.19-1.472 2.355-2.369 3.478.1-1.14.17-2.296.17-3.478 0-1.182-.07-2.338-.17-3.479zm-9.733-8.396c2.031 1.173 4.152 2.73 6.116 4.529.472 2.309.74 4.773.74 7.345 0 2.571-.268 5.035-.74 7.344-1.965 1.8-4.087 3.359-6.116 4.53-1.998 1.152-4.362 2.195-6.856 2.992-2.495-.797-4.86-1.84-6.855-2.992-2.03-1.173-4.151-2.73-6.115-4.529a36.71 36.71 0 01-.74-7.345c0-2.571.268-5.035.74-7.344 1.965-1.8 4.087-3.359 6.115-4.53 2.007-1.158 4.37-2.202 6.861-2.999 2.474.795 4.832 1.835 6.85 3zM8.34 29.48c-.897-1.124-1.704-2.289-2.368-3.48.665-1.19 1.471-2.354 2.368-3.477-.1 1.14-.169 2.296-.169 3.478 0 1.182.07 2.338.17 3.479zm8.21 11.034c.986.57 2.04 1.094 3.122 1.588-1.442.22-2.875.34-4.257.318a24.312 24.312 0 01-1.95-3.92 37.103 37.103 0 003.085 2.014zm8.379 8.44c-2.65 0-5.12-1.382-7.22-3.561 2.389-.166 4.833-.622 7.214-1.32 2.384.7 4.831 1.157 7.22 1.323-2.098 2.177-4.565 3.558-7.214 3.558zm19.79-11.527c-1.447 2.506-3.82 3.938-6.644 4.583 1.075-2.103 1.935-4.467 2.55-7.021 1.794-1.718 3.408-3.611 4.741-5.6.851 2.765.797 5.535-.647 8.038zm0-22.852c1.444 2.504 1.5 5.273.648 8.037-1.332-1.989-2.946-3.884-4.744-5.604-.615-2.554-1.476-4.92-2.551-7.023 2.825.646 5.199 2.081 6.647 4.59zM24.928 3.047c2.651 0 5.12 1.383 7.22 3.564-2.389.165-4.836.62-7.22 1.32-2.385-.7-4.832-1.155-7.221-1.32 2.1-2.181 4.57-3.564 7.22-3.564zM5.138 14.574c1.445-2.505 3.82-3.94 6.646-4.59-1.075 2.105-1.937 4.472-2.552 7.028-1.794 1.718-3.409 3.611-4.742 5.6-.85-2.765-.796-5.535.648-8.038zm4.095 20.419c.615 2.551 1.475 4.914 2.548 7.015-2.824-.644-5.197-2.076-6.643-4.582-1.445-2.504-1.5-5.273-.648-8.038 1.332 1.99 2.946 3.884 4.743 5.604z"/><path d="M24.928 21.43c4.207 0 7.617-1.364 7.617-3.047s-3.41-3.047-7.617-3.047-7.617 1.364-7.617 3.047 3.41 3.047 7.617 3.047zM24.928 24.477c-4.205 0-7.617-1.372-7.617-3.047V26c0 1.676 3.412 3.047 7.617 3.047 4.204 0 7.617-1.371 7.617-3.047v-4.57c0 1.675-3.413 3.047-7.617 3.047zM24.928 32.094c-4.205 0-7.617-1.371-7.617-3.047v4.57c0 1.676 3.412 3.047 7.617 3.047 4.204 0 7.617-1.371 7.617-3.047v-4.57c0 1.676-3.413 3.047-7.617 3.047z"/></svg><svg viewBox="0 0 48 48" id="5" xmlns="http://www.w3.org/2000/svg"><path d="M44.476 11.479l2.328-2.328a1.407 1.407 0 00-.876-2.396l-4.319-.364-.364-4.319a1.406 1.406 0 00-2.395-.876l-2.328 2.328A23.872 23.872 0 0024 0 23.843 23.843 0 007.03 7.03 23.843 23.843 0 000 24c0 6.41 2.496 12.438 7.03 16.97A23.844 23.844 0 0024 48c6.41 0 12.438-2.496 16.97-7.03A23.844 23.844 0 0048 24c0-4.452-1.215-8.757-3.524-12.521zm-5.57-3.668c.058.683.6 1.225 1.284 1.283l2.484.21-3.363 3.362-3.668-.309-.31-3.668 3.364-3.363.21 2.485zM28.781 24A4.787 4.787 0 0124 28.781 4.787 4.787 0 0119.219 24 4.787 4.787 0 0124 19.219c.808 0 1.568.201 2.236.556l-3.23 3.23a1.406 1.406 0 101.988 1.99l3.23-3.23c.355.667.557 1.427.557 2.235zm-.501-6.269A7.552 7.552 0 0024 16.406c-4.187 0-7.594 3.407-7.594 7.594s3.407 7.594 7.594 7.594 7.594-3.407 7.594-7.594c0-1.586-.49-3.06-1.325-4.28l4.015-4.015A13.155 13.155 0 0137.219 24c0 7.289-5.93 13.219-13.219 13.219S10.781 31.289 10.781 24 16.711 10.781 24 10.781c3.139 0 6.025 1.1 8.295 2.935l-4.015 4.015zm10.702 21.25A21.048 21.048 0 0124 45.188c-5.66 0-10.98-2.203-14.982-6.205A21.048 21.048 0 012.812 24c0-5.66 2.204-10.98 6.206-14.982A21.048 21.048 0 0124 2.812c3.702 0 7.289.952 10.47 2.764l-1.587 1.586a1.406 1.406 0 00-.407 1.113l.19 2.243A15.934 15.934 0 0024 7.968C15.16 7.969 7.969 15.16 7.969 24S15.16 40.031 24 40.031 40.031 32.84 40.031 24c0-3.19-.937-6.165-2.55-8.665l2.244.189c.04.003.08.005.119.005l.02-.001c.019 0 .037-.002.056-.003l.09-.007.057-.009a1.557 1.557 0 00.228-.056 1.293 1.293 0 00.136-.055c.017-.008.035-.015.052-.024.027-.014.053-.03.08-.045l.046-.028c.028-.018.055-.038.081-.058l.038-.028c.038-.03.075-.063.11-.098l1.586-1.586A21.08 21.08 0 0145.188 24c0 5.66-2.204 10.98-6.206 14.982z"/></svg><svg viewBox="0 0 10 20" id="facebook" xmlns="http://www.w3.org/2000/svg"><path d="M2.481 20v-9.385H0V7.237h2.481V4.35C2.481 2.083 3.947 0 7.325 0c1.367 0 2.379.131 2.379.131l-.08 3.155s-1.031-.01-2.157-.01c-1.218 0-1.413.562-1.413 1.493v2.468h3.667l-.16 3.378H6.054V20H2.481z"/></svg><svg viewBox="0 0 19 19" id="instagram" xmlns="http://www.w3.org/2000/svg"><path d="M9.498 6.332A3.175 3.175 0 006.33 9.5a3.175 3.175 0 003.168 3.168A3.175 3.175 0 0012.666 9.5a3.175 3.175 0 00-3.168-3.168zM18.999 9.5c0-1.312.012-2.612-.061-3.921-.074-1.521-.421-2.871-1.533-3.984C16.29.481 14.942.136 13.42.062 12.11-.01 10.81.001 9.5.001 8.188 0 6.888-.011 5.579.062 4.058.136 2.708.483 1.595 1.595.481 2.71.136 4.058.062 5.58-.01 6.89.001 8.19.001 9.5c0 1.31-.012 2.612.061 3.921.074 1.521.421 2.871 1.533 3.984 1.115 1.114 2.463 1.459 3.984 1.532C6.89 19.012 8.19 19 9.5 19c1.312 0 2.612.012 3.921-.061 1.521-.074 2.871-.421 3.984-1.533 1.114-1.115 1.459-2.463 1.532-3.984.077-1.31.062-2.61.062-3.921zm-9.501 4.874A4.868 4.868 0 014.623 9.5a4.868 4.868 0 014.875-4.874A4.867 4.867 0 0114.372 9.5a4.868 4.868 0 01-4.874 4.874zm5.074-8.81a1.137 1.137 0 110-2.277 1.137 1.137 0 01.805 1.944 1.138 1.138 0 01-.805.333z"/></svg><svg viewBox="0 0 14 24" id="left" xmlns="http://www.w3.org/2000/svg"><path d="M10.673.943L.99 10.625a1.936 1.936 0 000 2.73l9.683 9.683a1.938 1.938 0 002.73-2.73L5.096 12l8.307-8.327a1.936 1.936 0 000-2.73 1.936 1.936 0 00-2.73 0z"/></svg><svg fill="none" viewBox="0 0 174 34" id="logo" xmlns="http://www.w3.org/2000/svg"><path d="M41.512 25.288c-1.328 0-2.616-.176-3.864-.528-1.232-.368-2.224-.84-2.976-1.416l1.32-2.928c.72.528 1.576.952 2.568 1.272.992.32 1.984.48 2.976.48 1.104 0 1.92-.16 2.448-.48.528-.336.792-.776.792-1.32 0-.4-.16-.728-.48-.984-.304-.272-.704-.488-1.2-.648-.48-.16-1.136-.336-1.968-.528-1.28-.304-2.328-.608-3.144-.912a5.199 5.199 0 01-2.112-1.464c-.576-.672-.864-1.568-.864-2.688 0-.976.264-1.856.792-2.64.528-.8 1.32-1.432 2.376-1.896 1.072-.464 2.376-.696 3.912-.696 1.072 0 2.12.128 3.144.384s1.92.624 2.688 1.104l-1.2 2.952c-1.552-.88-3.104-1.32-4.656-1.32-1.088 0-1.896.176-2.424.528-.512.352-.768.816-.768 1.392s.296 1.008.888 1.296c.608.272 1.528.544 2.76.816 1.28.304 2.328.608 3.144.912a5.113 5.113 0 012.088 1.44c.592.656.888 1.544.888 2.664 0 .96-.272 1.84-.816 2.64-.528.784-1.328 1.408-2.4 1.872-1.072.464-2.376.696-3.912.696zM57.417 18.4l-2.256 2.352V25h-3.864V8.2h3.864v7.848L62.6 8.2h4.32l-6.96 7.488L67.329 25h-4.536l-5.376-6.6zM69.062 8.2h3.888V25h-3.888V8.2zm7.875 0h3.888v13.632h8.424V25H76.937V8.2zm14.485 0h3.888v13.632h8.424V25H91.422V8.2zm22.243 17.088c-1.712 0-3.264-.368-4.656-1.104a8.555 8.555 0 01-3.264-3.096c-.784-1.328-1.176-2.824-1.176-4.488 0-1.664.392-3.152 1.176-4.464a8.323 8.323 0 013.264-3.096c1.392-.752 2.952-1.128 4.68-1.128 1.456 0 2.768.256 3.936.768a7.886 7.886 0 012.976 2.208l-2.496 2.304c-1.136-1.312-2.544-1.968-4.224-1.968-1.04 0-1.968.232-2.784.696a4.862 4.862 0 00-1.92 1.896c-.448.816-.672 1.744-.672 2.784 0 1.04.224 1.968.672 2.784a5.03 5.03 0 001.92 1.92c.816.448 1.744.672 2.784.672 1.68 0 3.088-.664 4.224-1.992l2.496 2.304a7.78 7.78 0 01-2.976 2.232c-1.184.512-2.504.768-3.96.768zm20.297-3.888h-7.8l-1.488 3.6h-3.984l7.488-16.8h3.84L139.53 25h-4.08l-1.488-3.6zm-1.224-2.952l-2.664-6.432-2.664 6.432h5.328zM151.977 25l-3.24-4.68h-3.576V25h-3.888V8.2h7.272c1.488 0 2.776.248 3.864.744 1.104.496 1.952 1.2 2.544 2.112.592.912.888 1.992.888 3.24 0 1.248-.304 2.328-.912 3.24-.592.896-1.44 1.584-2.544 2.064l3.768 5.4h-4.176zm-.072-10.704c0-.944-.304-1.664-.912-2.16-.608-.512-1.496-.768-2.664-.768h-3.168v5.856h3.168c1.168 0 2.056-.256 2.664-.768.608-.512.912-1.232.912-2.16zm20.025 7.584V25h-13.008V8.2h12.696v3.12h-8.832v3.648h7.8v3.024h-7.8v3.888h9.144z" fill="#3D3D3D"/><path d="M15.869 30.368l.202-.067.004-.213.413-24.737C16.54 2.285 13.816-.02 11.044.905L4.342 3.14C2.488 3.76 1.235 5.603 1.209 7.68L.96 27.498c-.048 3.833 3.35 6.69 6.798 5.55l8.112-2.68zM11.957 4.056l-.095-.285.095.285c.7-.234 1.473.34 1.458 1.236l-.377 22.559-6.186 2.043.094.285-.094-.285c-1.382.457-2.84-.678-2.82-2.352l.25-19.818c.009-.676.415-1.246.973-1.432l-.095-.284.095.284 6.702-2.236z" fill="#FE7244" stroke="#FE7244" stroke-width=".6"/><path d="M21.553 25.095l-6.006 1.934.225-16.539 5.304-2.03c1.022-.391 2.16.432 2.15 1.714l-.094 12.618c-.008 1.083-.663 2.008-1.579 2.303zm-1.51-19.743h0L12.92 8.078l-.19.073-.003.203-.308 22.712-.006.418.397-.128 9.627-3.1c2.233-.719 3.75-2.936 3.768-5.437L26.3 10.2c.026-3.493-3.15-6.038-6.256-4.849z" fill="#FE7244" stroke="#FE7244" stroke-width=".6"/><path d="M4.315 7.263l-.296-.05.296.05c.07-.427.348-.76.7-.88l6.608-2.274c.843-.29 1.767.389 1.767 1.449v1.317L6.64 9.469c-.63.242-1.264.073-1.72-.35-.458-.426-.73-1.103-.605-1.856zm11.956 2.01l.193-.075v-3.64c0-3.22-2.883-5.588-5.78-4.591l.098.283-.098-.283L4.077 3.24c-1.458.501-2.523 1.836-2.789 3.447-.325 1.973.385 3.78 1.62 4.927 1.237 1.148 3.006 1.64 4.769.962l8.595-3.304z" fill="#FE7244" stroke="#FE7244" stroke-width=".6"/></svg><svg viewBox="0 0 16 20" id="pinterset" xmlns="http://www.w3.org/2000/svg"><path d="M0 7.174C0 6.31.151 5.493.45 4.73c.284-.74.706-1.42 1.245-2.003A8.462 8.462 0 013.522 1.25 8.35 8.35 0 015.747.312 9.525 9.525 0 018.176 0a7.95 7.95 0 013.536.801A6.691 6.691 0 0114.37 3.13c.682 1.017 1.021 2.167 1.021 3.45 0 .769-.076 1.521-.23 2.257a9.2 9.2 0 01-.718 2.126 7.34 7.34 0 01-1.203 1.797c-.49.528-1.083.95-1.742 1.238a5.514 5.514 0 01-2.273.464 3.724 3.724 0 01-1.622-.385c-.535-.256-.92-.607-1.151-1.057-.081.313-.192.764-.34 1.354-.142.589-.238.969-.28 1.141a24.75 24.75 0 01-.247.853 5.764 5.764 0 01-.312.854l-.383.75c-.165.321-.35.632-.553.93-.201.292-.45.64-.747 1.04L3.424 20l-.11-.12c-.119-1.26-.18-2.013-.18-2.262 0-.737.088-1.563.261-2.482.17-.916.44-2.069.8-3.455.362-1.385.569-2.2.624-2.44-.254-.52-.383-1.198-.383-2.031 0-.666.208-1.29.624-1.876.418-.585.946-.877 1.586-.877.49 0 .87.162 1.143.488.273.324.407.733.407 1.232 0 .53-.176 1.295-.53 2.296-.353 1.003-.528 1.751-.528 2.248 0 .503.18.925.54 1.255.355.33.825.509 1.31.499.44 0 .848-.1 1.227-.302.373-.195.696-.474.944-.814.539-.74.923-1.581 1.13-2.473.107-.47.189-.915.24-1.334.055-.421.078-.819.078-1.197 0-1.386-.44-2.466-1.315-3.24-.879-.773-2.024-1.158-3.432-1.158-1.602 0-2.94.518-4.013 1.557-1.074 1.036-1.614 2.353-1.614 3.95 0 .353.053.693.154 1.022.1.328.207.589.324.782.115.19.224.376.323.547.1.171.153.293.153.367 0 .224-.06.516-.178.878-.124.361-.27.541-.445.541a1.92 1.92 0 01-.206-.038 2.456 2.456 0 01-1.088-.672 3.523 3.523 0 01-.732-1.136 7.764 7.764 0 01-.391-1.3c-.1-.42-.15-.85-.147-1.28z"/></svg><svg viewBox="0 0 27 30" id="play" xmlns="http://www.w3.org/2000/svg"><path d="M24.515 12.309c1.698.906 1.778 3.31.145 4.328L4.988 28.893c-1.633 1.017-3.756-.115-3.82-2.038L.39 3.69C.325 1.767 2.367.495 4.065 1.4l20.45 10.909z"/></svg><svg viewBox="0 0 20 19" id="star" xmlns="http://www.w3.org/2000/svg"><path d="M10.598.37a.667.667 0 00-1.196 0L6.673 5.875l-6.102.882A.662.662 0 00.2 7.889l4.416 4.285-1.043 6.05c-.043.25.06.5.266.65a.67.67 0 00.702.05L10 16.067l5.458 2.857a.67.67 0 00.702-.05.662.662 0 00.266-.65l-1.043-6.05 4.416-4.285a.661.661 0 00-.37-1.132l-6.102-.882L10.597.37z"/></svg><svg viewBox="0 0 20 17" id="twitter" xmlns="http://www.w3.org/2000/svg"><path d="M20 1.93a8.22 8.22 0 01-2.36.635 4.089 4.089 0 001.802-2.26 8.091 8.091 0 01-2.6.99A4.089 4.089 0 0013.847 0a4.097 4.097 0 00-4.098 4.1c0 .318.038.635.1.94A11.647 11.647 0 011.4.75 4.07 4.07 0 00.84 2.82c0 1.422.724 2.677 1.827 3.415a4.134 4.134 0 01-1.853-.522v.05A4.1 4.1 0 004.1 9.788a4.34 4.34 0 01-1.079.14c-.267 0-.519-.027-.774-.063a4.106 4.106 0 003.832 2.844A8.214 8.214 0 01.99 14.46a8.37 8.37 0 01-.99-.05 11.605 11.605 0 006.295 1.838c7.537 0 11.662-6.244 11.662-11.664 0-.178 0-.356-.012-.534A8.828 8.828 0 0020 1.93z"/></svg></svg>